<svg width="59" height="16" viewBox="0 0 59 16" fill="none" xmlns="http://www.w3.org/2000/svg">
<path d="M1 7C0.447715 7 4.82823e-08 7.44772 0 8C-4.82823e-08 8.55228 0.447715 9 1 9L1 7ZM58.7071 8.70711C59.0976 8.31659 59.0976 7.68342 58.7071 7.2929L52.3431 0.928937C51.9526 0.538412 51.3195 0.538412 50.9289 0.928937C50.5384 1.31946 50.5384 1.95263 50.9289 2.34315L56.5858 8L50.9289 13.6569C50.5384 14.0474 50.5384 14.6805 50.9289 15.0711C51.3195 15.4616 51.9526 15.4616 52.3431 15.0711L58.7071 8.70711ZM1 9L58 9L58 7L1 7L1 9Z" fill="white"/>
</svg>
