<svg width="48" height="48" viewBox="0 0 48 48" fill="none" xmlns="http://www.w3.org/2000/svg">
<path d="M24.0003 0C17.6383 0.0104463 11.54 2.54213 7.04098 7.04094C2.54215 11.5393 0.0103887 17.6384 0 24.0002V40.7999C0.00562503 42.7081 0.765814 44.5362 2.11498 45.885C3.46376 47.2342 5.29197 47.9944 7.2001 48H24C30.3652 48 36.4696 45.4715 40.9706 40.9707C45.4715 36.4698 48 30.365 48 24.0002C48 17.6353 45.4715 11.5307 40.9706 7.02962C36.4698 2.52876 30.3649 0.000308797 24 0.000308797L24.0003 0Z" fill="white"/>
<path d="M11.3807 23.8694H16.7134V25.8053H11.3807V23.8694ZM11.5711 29.6025H9V19.1787H17.3959V21.1145H11.5711V29.6025Z" fill="black"/>
<path d="M16.3701 29.6025L21.322 19.1787H23.8614L28.8291 29.6025H26.131L22.0679 20.3998H23.0837L19.0047 29.6025H16.3701ZM18.846 27.3688L19.5285 25.5372H25.2422L25.9405 27.3688H18.846Z" fill="black"/>
<path d="M34.3658 29.7812C33.4982 29.7812 32.6887 29.6472 31.9375 29.3792C31.1968 29.1111 30.5514 28.7339 30.0012 28.2474C29.4616 27.761 29.0383 27.1901 28.7315 26.5349C28.4352 25.8797 28.2871 25.1649 28.2871 24.3906C28.2871 23.6163 28.4352 22.9015 28.7315 22.2463C29.0383 21.5911 29.4669 21.0202 30.0171 20.5338C30.5673 20.0473 31.2127 19.6701 31.9534 19.4021C32.694 19.134 33.4982 19 34.3658 19C35.244 19 36.0482 19.134 36.7782 19.4021C37.5189 19.6701 38.159 20.0473 38.6987 20.5338C39.2489 21.0103 39.6774 21.5762 39.9842 22.2314C40.2911 22.8866 40.4445 23.6063 40.4445 24.3906C40.4445 25.1649 40.2911 25.8847 39.9842 26.5498C39.6774 27.205 39.2489 27.7759 38.6987 28.2623C38.159 28.7388 37.5189 29.1111 36.7782 29.3792C36.0482 29.6472 35.244 29.7812 34.3658 29.7812ZM38.0003 32C37.5665 32 37.1539 31.9553 36.7624 31.866C36.3815 31.7766 36.0005 31.6327 35.6196 31.4341C35.2493 31.2356 34.8578 30.9675 34.4452 30.63C34.0431 30.2925 33.604 29.8755 33.1278 29.3792L35.826 28.7388C36.1116 29.1061 36.3762 29.399 36.6195 29.6174C36.8629 29.8358 37.0957 29.9897 37.3179 30.079C37.5506 30.1684 37.794 30.2131 38.0479 30.2131C38.7251 30.2131 39.3282 29.9549 39.8573 29.4387L41 30.7194C40.2488 31.5731 39.2489 32 38.0003 32ZM34.3658 27.7262C34.8631 27.7262 35.3181 27.6468 35.7307 27.488C36.154 27.3291 36.5243 27.1008 36.8417 26.803C37.1592 26.5052 37.4025 26.1527 37.5718 25.7457C37.7517 25.3288 37.8416 24.8771 37.8416 24.3906C37.8416 23.8942 37.7517 23.4425 37.5718 23.0355C37.4025 22.6285 37.1592 22.2761 36.8417 21.9782C36.5243 21.6804 36.154 21.4521 35.7307 21.2932C35.3181 21.1344 34.8631 21.055 34.3658 21.055C33.8685 21.055 33.4082 21.1344 32.985 21.2932C32.5618 21.4521 32.1914 21.6804 31.874 21.9782C31.5672 22.2761 31.3238 22.6285 31.1439 23.0355C30.9746 23.4425 30.89 23.8942 30.89 24.3906C30.89 24.8771 30.9746 25.3288 31.1439 25.7457C31.3238 26.1527 31.5672 26.5052 31.874 26.803C32.1914 27.1008 32.5618 27.3291 32.985 27.488C33.4082 27.6468 33.8685 27.7262 34.3658 27.7262Z" fill="black"/>
</svg>
