<svg width="35" height="46" viewBox="0 0 35 46" fill="none" xmlns="http://www.w3.org/2000/svg">
<circle cx="5" cy="5.97064" r="5" fill="#D0E25A"/>
<circle cx="30" cy="5.97064" r="5" fill="#D0E25A"/>
<circle cx="18" cy="5.97064" r="5" fill="#D0E25A"/>
<path d="M6.69263 41.8009C6.49433 43.7876 5.40368 44.8638 3.42068 45.0294C2.49528 45.0294 1.68555 44.7313 0.991502 44.1353C0.330501 43.5062 0 42.728 0 41.8009L0 18.2578C0.03305 17.3307 0.380076 16.5691 1.04108 15.9731C1.70208 15.3439 2.49528 15.0294 3.42068 15.0294L5.84986 15.0294H11.9476L24.1926 15.0294C24.3909 15.0294 24.5892 15.0459 24.7875 15.079H25.085C27.3985 15.1453 29.2989 15.6751 30.7861 16.6684C32.2734 17.6618 33.3475 18.8042 34.0085 20.0956C34.6695 21.3539 35 22.6287 35 23.9201C35 25.2446 34.6695 26.5525 34.0085 27.8439C33.3805 29.1022 32.3064 30.228 30.7861 31.2214C29.2989 32.2148 27.3985 32.7446 25.085 32.8108H16.3598C16.6242 34.4664 17.1695 35.6916 17.9958 36.4863C18.789 37.281 19.797 37.6784 21.0198 37.6784H31.728C32.6534 37.7115 33.4136 38.0592 34.0085 38.7214C34.6364 39.3837 34.9504 40.1784 34.9504 41.1055C34.9174 41.9996 34.5869 42.7611 33.9589 43.3903C33.364 43.9863 32.6204 44.3009 31.728 44.334H20.1275C17.6818 44.3671 15.4674 43.4068 13.4844 41.4532C11.5014 39.4996 10.2951 37.1817 9.86544 34.4996C9.27054 31.5194 8.97309 29.8472 8.97309 29.483C8.97309 28.5558 9.28706 27.7777 9.91501 27.1486C10.576 26.4863 11.3692 26.1552 12.2946 26.1552L25.3824 26.1552C26.0104 26.1221 26.5227 25.9896 26.9193 25.7578C27.3489 25.4929 27.6629 25.2115 27.8612 24.9135C28.0595 24.5823 28.1586 24.2512 28.1586 23.9201C28.1586 23.589 28.0595 23.2744 27.8612 22.9764C27.6629 22.6453 27.3489 22.3638 26.9193 22.132C26.5227 21.8671 26.0104 21.7181 25.3824 21.685L11.9476 21.685H7.98159C7.12228 21.7181 6.69263 22.1486 6.69263 22.9764L6.69263 41.8009Z" fill="white"/>
</svg>
