<svg width="245" height="63" viewBox="0 0 245 63" fill="none" xmlns="http://www.w3.org/2000/svg">
<circle cx="8" cy="7" r="7" fill="#D0E25A"/>
<circle cx="43" cy="7" r="7" fill="#D0E25A"/>
<circle cx="26" cy="7" r="7" fill="#D0E25A"/>
<path d="M9.75212 58.3725C9.46317 61.2202 7.87394 62.7627 4.98442 63C3.63598 63 2.45609 62.5728 1.44476 61.7185C0.481587 60.8168 0 59.7014 0 58.3725L0 24.6275C0.0481586 23.2986 0.553825 22.207 1.517 21.3526C2.48017 20.4509 3.63598 20 4.98442 20H8.52408L17.4093 20L35.2521 20C35.5411 20 35.83 20.0237 36.119 20.0712H36.5524C39.9235 20.1661 42.6926 20.9255 44.8598 22.3493C47.0269 23.7732 48.5921 25.4106 49.5552 27.2616C50.5184 29.0651 51 30.8924 51 32.7434C51 34.6418 50.5184 36.5166 49.5552 38.3675C48.6402 40.1711 47.0751 41.7848 44.8598 43.2086C42.6926 44.6325 39.9235 45.3918 36.5524 45.4868L23.8385 45.4868C24.2238 47.8598 25.0184 49.6159 26.2224 50.755C27.3782 51.894 28.847 52.4636 30.6289 52.4636H46.2323C47.5807 52.511 48.6884 53.0094 49.5552 53.9586C50.4703 54.9078 50.9278 56.0469 50.9278 57.3758C50.8796 58.6573 50.398 59.7489 49.483 60.6507C48.6161 61.505 47.5326 61.9559 46.2323 62.0033H29.3286C25.7649 62.0508 22.5382 60.6744 19.6487 57.8742C16.7592 55.074 15.0014 51.7517 14.3754 47.9073C13.5085 43.6358 13.0751 41.239 13.0751 40.7169C13.0751 39.388 13.5326 38.2726 14.4476 37.3709C15.4108 36.4216 16.5666 35.947 17.915 35.947L36.9858 35.947C37.9008 35.8996 38.6473 35.7097 39.2252 35.3775C39.8513 34.9978 40.3088 34.5944 40.5977 34.1672C40.8867 33.6926 41.0312 33.218 41.0312 32.7434C41.0312 32.2688 40.8867 31.8179 40.5977 31.3907C40.3088 30.9161 39.8513 30.5127 39.2252 30.1805C38.6473 29.8008 37.9008 29.5872 36.9858 29.5397L17.4093 29.5397L11.6303 29.5397C10.3782 29.5872 9.75212 30.2042 9.75212 31.3907L9.75212 58.3725Z" fill="white"/>
<path d="M69.4466 24.5293C69.3149 25.8458 68.5903 26.5589 67.2727 26.6686C66.6579 26.6686 66.1199 26.4711 65.6588 26.0761C65.2196 25.6593 65 25.1436 65 24.5293V8.92914C65.022 8.31479 65.2525 7.81014 65.6917 7.4152C66.1309 6.99832 66.6579 6.78988 67.2727 6.78988H68.8867H72.9381H81.0738C81.2055 6.78988 81.3373 6.80085 81.469 6.82279H81.6667C83.2038 6.86668 84.4664 7.21773 85.4545 7.87597C86.4427 8.5342 87.1563 9.29117 87.5955 10.1469C88.0347 10.9806 88.2543 11.8254 88.2543 12.6811C88.2543 13.5587 88.0347 14.4254 87.5955 15.2811C87.1783 16.1149 86.4646 16.8609 85.4545 17.5191C84.4664 18.1773 83.2038 18.5284 81.6667 18.5723H75.8696C76.0452 19.6693 76.4076 20.4812 76.9565 21.0077C77.4835 21.5343 78.1533 21.7976 78.9657 21.7976H86.0804C86.6952 21.8196 87.2003 22.0499 87.5955 22.4888C88.0127 22.9276 88.2213 23.4542 88.2213 24.0685C88.1994 24.6609 87.9798 25.1656 87.5626 25.5825C87.1673 25.9774 86.6733 26.1859 86.0804 26.2078H78.3729C76.7479 26.2297 75.2767 25.5934 73.9592 24.2989C72.6416 23.0044 71.8401 21.4685 71.5547 19.6913C71.1594 17.7166 70.9618 16.6085 70.9618 16.3672C70.9618 15.7528 71.1704 15.2372 71.5876 14.8203C72.0268 14.3815 72.5538 14.1621 73.1686 14.1621H81.8643C82.2815 14.1402 82.6219 14.0524 82.8854 13.8988C83.1708 13.7233 83.3794 13.5368 83.5112 13.3393C83.643 13.1199 83.7088 12.9005 83.7088 12.6811C83.7088 12.4617 83.643 12.2532 83.5112 12.0558C83.3794 11.8363 83.1708 11.6498 82.8854 11.4963C82.6219 11.3207 82.2815 11.222 81.8643 11.2001H72.9381H70.303C69.7321 11.222 69.4466 11.5072 69.4466 12.0558V24.5293Z" fill="white"/>
<path d="M109.837 6.78988C110.957 6.81182 111.956 7.16288 112.834 7.84306C113.712 8.52323 114.415 9.33505 114.942 10.2785C115.491 11.222 115.897 12.2203 116.161 13.2735C116.424 14.3267 116.556 15.4018 116.556 16.4988C116.556 17.947 116.325 19.3731 115.864 20.7774C115.425 22.1597 114.689 23.3884 113.657 24.4635C112.647 25.5386 111.374 26.12 109.837 26.2078H98.3412C96.8041 26.142 95.5195 25.5715 94.4875 24.4964C93.4554 23.4213 92.7198 22.1816 92.2806 20.7774C91.8634 19.3731 91.6548 17.947 91.6548 16.4988C91.6548 15.0507 91.8744 13.6355 92.3136 12.2532C92.7527 10.849 93.4774 9.60932 94.4875 8.5342C95.5195 7.43714 96.8041 6.8557 98.3412 6.78988H98.9671H109.211H109.837ZM108.717 21.7976C109.551 21.7537 110.243 21.4466 110.792 20.8761C111.363 20.2837 111.769 19.6035 112.011 18.8356C112.252 18.0676 112.373 17.2887 112.373 16.4988C112.373 15.709 112.241 14.941 111.978 14.195C111.736 13.4271 111.341 12.7469 110.792 12.1545C110.243 11.5621 109.551 11.2439 108.717 11.2001H99.3623C98.5279 11.2439 97.8362 11.5621 97.2872 12.1545C96.7383 12.7469 96.332 13.4271 96.0685 14.195C95.827 14.941 95.7062 15.709 95.7062 16.4988C95.7062 17.2887 95.827 18.0676 96.0685 18.8356C96.3101 19.6035 96.7053 20.2837 97.2543 20.8761C97.8252 21.4466 98.5279 21.7537 99.3623 21.7976H108.717Z" fill="white"/>
<path d="M122.69 6.26329C123.305 6.26329 123.832 6.47173 124.271 6.88862C124.711 7.28356 124.941 7.7882 124.963 8.40256V9.02788C124.941 9.92746 124.996 10.7612 125.128 11.5292C125.282 12.2752 125.633 12.9444 126.182 13.5368C126.731 14.1292 127.422 14.4473 128.257 14.4912H137.513V8.46838C137.513 7.85403 137.732 7.34938 138.171 6.95444C138.632 6.53756 139.17 6.32912 139.785 6.32912C141.103 6.43882 141.827 7.15191 141.959 8.46838V16.1039C141.959 17.8592 141.718 19.5157 141.235 21.0736C140.795 22.4559 140.071 23.6297 139.061 24.5951C138.072 25.5386 136.81 26.0542 135.273 26.142H123.415C122.822 26.12 122.317 25.9116 121.9 25.5166C121.505 25.0998 121.296 24.5951 121.274 24.0027C121.274 23.3884 121.472 22.8618 121.867 22.4229C122.284 21.9841 122.8 21.7537 123.415 21.7318H134.153C134.987 21.6879 135.679 21.3698 136.228 20.7774C136.733 20.2288 137.073 19.6035 137.249 18.9014H127.137C125.6 18.8136 124.326 18.298 123.316 17.3545C122.328 16.3891 121.614 15.2153 121.175 13.833C120.758 12.4507 120.538 10.9806 120.516 9.42282V8.40256C120.538 7.81014 120.758 7.31647 121.175 6.92153C121.592 6.50465 122.097 6.28523 122.69 6.26329Z" fill="white"/>
<path d="M154.022 21.1065C154.022 20.4921 154.231 19.9765 154.648 19.5596C155.087 19.1208 155.614 18.9014 156.229 18.9014H161.269L160.412 16.4659C160.061 15.5663 159.71 14.7216 159.358 13.9317C159.029 13.1199 158.645 12.3849 158.206 11.7266C157.81 11.0684 157.36 10.7173 156.855 10.6735C156.328 10.7173 155.856 11.0684 155.439 11.7266C155.022 12.3849 154.637 13.1199 154.286 13.9317C153.957 14.7216 153.616 15.5663 153.265 16.4659L150.136 25.023C149.916 25.4837 149.631 25.8677 149.279 26.1749C148.95 26.4601 148.445 26.6027 147.764 26.6027C147.127 26.6027 146.6 26.3833 146.183 25.9445C145.788 25.5057 145.612 24.9791 145.656 24.3647C145.678 24.0795 145.744 23.8162 145.854 23.5749L149.477 14.2279C150.487 11.7705 151.497 9.78485 152.507 8.27091C153.495 6.77891 154.945 6.02194 156.855 6C158.744 6.02194 160.182 6.77891 161.17 8.27091C162.18 9.74097 163.19 11.7266 164.2 14.2279L167.823 23.5749C167.933 23.8162 167.999 24.0795 168.021 24.3647C168.065 24.9791 167.878 25.5057 167.461 25.9445C167.066 26.3833 166.55 26.6027 165.913 26.6027C165.188 26.6027 164.65 26.4601 164.299 26.1749C163.97 25.8677 163.695 25.4837 163.476 25.023L162.85 23.3116H156.229C155.614 23.3116 155.098 23.0922 154.681 22.6533C154.242 22.2364 154.022 21.7208 154.022 21.1065Z" fill="white"/>
<path d="M173.859 6.26329C174.474 6.26329 175.001 6.47173 175.44 6.88862C175.879 7.28356 176.11 7.7882 176.132 8.40256V16.3343C176.11 17.2339 176.165 18.0676 176.296 18.8356C176.45 19.5816 176.801 20.2508 177.35 20.8432C177.899 21.4356 178.591 21.7537 179.426 21.7976H189.966C190.581 21.8196 191.086 22.0499 191.481 22.4888C191.898 22.9276 192.107 23.4542 192.107 24.0685C192.085 24.6609 191.865 25.1656 191.448 25.5825C191.053 25.9774 190.559 26.1859 189.966 26.2078H178.306C176.769 26.12 175.495 25.6044 174.485 24.6609C173.497 23.6955 172.783 22.5217 172.344 21.1394C171.927 19.7571 171.707 18.287 171.685 16.7292V8.40256C171.707 7.81014 171.927 7.31647 172.344 6.92153C172.761 6.50465 173.266 6.28523 173.859 6.26329Z" fill="white"/>
<path d="M67.2069 36.5947C67.8217 36.5947 68.3487 36.8032 68.7879 37.2201C69.2271 37.615 69.4576 38.1196 69.4796 38.734V46.6657C69.4576 47.5653 69.5125 48.3991 69.6443 49.167C69.798 49.913 70.1493 50.5822 70.6983 51.1746C71.2473 51.767 71.939 52.0852 72.7734 52.1291H83.3136C83.9284 52.151 84.4335 52.3814 84.8287 52.8202C85.2459 53.259 85.4545 53.7856 85.4545 54.4C85.4326 54.9924 85.213 55.497 84.7958 55.9139C84.4005 56.3089 83.9065 56.5173 83.3136 56.5392H71.6535C70.1164 56.4515 68.8428 55.9359 67.8327 54.9924C66.8445 54.027 66.1309 52.8531 65.6917 51.4708C65.2745 50.0885 65.0549 48.6185 65.0329 47.0607V38.734C65.0549 38.1416 65.2745 37.6479 65.6917 37.253C66.1089 36.8361 66.614 36.6167 67.2069 36.5947Z" fill="white"/>
<path d="M106.609 37.1213C107.729 37.1433 108.728 37.4943 109.606 38.1745C110.484 38.8547 111.187 39.6665 111.714 40.61C112.263 41.5534 112.669 42.5518 112.933 43.6049C113.196 44.6581 113.328 45.7332 113.328 46.8303C113.328 48.2784 113.097 49.7046 112.636 51.1088C112.197 52.4911 111.462 53.7198 110.43 54.7949C109.419 55.87 108.146 56.4515 106.609 56.5392H95.1133C93.5762 56.4734 92.2916 55.9029 91.2596 54.8278C90.2275 53.7527 89.4919 52.513 89.0527 51.1088C88.6355 49.7046 88.4269 48.2784 88.4269 46.8303C88.4269 45.3822 88.6465 43.967 89.0856 42.5847C89.5248 41.1804 90.2494 39.9408 91.2596 38.8656C92.2916 37.7686 93.5762 37.1871 95.1133 37.1213H95.7391H105.983H106.609ZM105.489 52.1291C106.323 52.0852 107.015 51.778 107.564 51.2075C108.135 50.6151 108.541 49.9349 108.783 49.167C109.024 48.3991 109.145 47.6202 109.145 46.8303C109.145 46.0404 109.013 45.2725 108.75 44.5265C108.508 43.7585 108.113 43.0783 107.564 42.4859C107.015 41.8935 106.323 41.5754 105.489 41.5315H96.1344C95.3 41.5754 94.6083 41.8935 94.0593 42.4859C93.5103 43.0783 93.1041 43.7585 92.8406 44.5265C92.599 45.2725 92.4783 46.0404 92.4783 46.8303C92.4783 47.6202 92.599 48.3991 92.8406 49.167C93.0821 49.9349 93.4774 50.6151 94.0263 51.2075C94.5973 51.778 95.3 52.0852 96.1344 52.1291H105.489Z" fill="white"/>
<path d="M116.63 39.3264C116.63 38.7121 116.838 38.1964 117.256 37.7796C117.695 37.3407 118.222 37.1213 118.837 37.1213H138.007C138.621 37.1213 139.148 37.3298 139.588 37.7466C140.005 38.1855 140.213 38.7121 140.213 39.3264C140.213 39.9408 139.994 40.4673 139.555 40.9062C139.137 41.323 138.621 41.5315 138.007 41.5315H130.661V54.8607C130.53 56.1772 129.805 56.8903 128.487 57C127.873 57 127.335 56.8025 126.874 56.4076C126.434 55.9907 126.215 55.4751 126.215 54.8607V41.5315H118.837C118.222 41.5315 117.706 41.3121 117.289 40.8733C116.849 40.4564 116.63 39.9408 116.63 39.3264Z" fill="white"/>
<path d="M143.383 39.3264C143.383 38.7121 143.592 38.1964 144.009 37.7796C144.448 37.3407 144.975 37.1213 145.59 37.1213H164.76C165.375 37.1213 165.902 37.3298 166.341 37.7466C166.758 38.1855 166.967 38.7121 166.967 39.3264C166.967 39.9408 166.747 40.4673 166.308 40.9062C165.891 41.323 165.375 41.5315 164.76 41.5315H157.415V54.8607C157.283 56.1772 156.559 56.8903 155.241 57C154.626 57 154.088 56.8025 153.627 56.4076C153.188 55.9907 152.968 55.4751 152.968 54.8607V41.5315H145.59C144.975 41.5315 144.459 41.3121 144.042 40.8733C143.603 40.4564 143.383 39.9408 143.383 39.3264Z" fill="white"/>
<path d="M176.889 37.1213H178.404H189.603C190.218 37.1433 190.723 37.3736 191.119 37.8125C191.536 38.2513 191.744 38.7779 191.744 39.3922C191.635 40.7087 190.921 41.4218 189.603 41.5315H178.009C177.175 41.5754 176.483 41.8935 175.934 42.4859C175.385 43.0783 174.979 43.7585 174.715 44.5265C174.474 45.2725 174.353 46.0404 174.353 46.8303C174.353 47.6202 174.474 48.3991 174.715 49.167C174.979 49.913 175.385 50.5822 175.934 51.1746C176.483 51.767 177.175 52.0852 178.009 52.1291H189.603C190.218 52.151 190.723 52.3814 191.119 52.8202C191.536 53.259 191.744 53.7856 191.744 54.4C191.722 54.9924 191.503 55.497 191.086 55.9139C190.69 56.3089 190.196 56.5173 189.603 56.5392H177.515H176.889C175.352 56.4515 174.079 55.87 173.069 54.7949C172.08 53.6979 171.367 52.4582 170.928 51.0759C170.51 49.6936 170.302 48.2784 170.302 46.8303C170.302 45.3822 170.521 43.967 170.96 42.5847C171.4 41.2024 172.113 39.9737 173.101 38.8986C174.09 37.8015 175.352 37.2091 176.889 37.1213ZM191.679 46.6986C191.679 47.313 191.459 47.8286 191.02 48.2455C190.603 48.6843 190.087 48.9037 189.472 48.9037H179.524C178.91 48.9037 178.383 48.6953 177.943 48.2784C177.526 47.8396 177.318 47.313 177.318 46.6986C177.318 46.0843 177.526 45.5577 177.943 45.1189C178.383 44.702 178.91 44.4935 179.524 44.4935H189.472C190.087 44.4935 190.603 44.713 191.02 45.1518C191.459 45.5687 191.679 46.0843 191.679 46.6986Z" fill="white"/>
<path d="M199.822 54.8607C199.69 56.1772 198.966 56.8903 197.648 57C197.033 57 196.495 56.8025 196.034 56.4076C195.595 55.9907 195.375 55.4751 195.375 54.8607V39.2606C195.397 38.6462 195.628 38.1416 196.067 37.7466C196.506 37.3298 197.033 37.1213 197.648 37.1213H199.262H203.314H211.449C211.581 37.1213 211.713 37.1323 211.845 37.1542H212.042C213.579 37.1981 214.842 37.5492 215.83 38.2074C216.818 38.8656 217.532 39.6226 217.971 40.4783C218.41 41.3121 218.63 42.1568 218.63 43.0125C218.63 43.8902 218.41 44.7568 217.971 45.6125C217.554 46.4463 216.84 47.1923 215.83 47.8505C214.842 48.5088 213.579 48.8598 212.042 48.9037H206.245C206.421 50.0008 206.783 50.8126 207.332 51.3392C207.859 51.8658 208.529 52.1291 209.341 52.1291H216.456C217.071 52.151 217.576 52.3814 217.971 52.8202C218.388 53.259 218.597 53.7856 218.597 54.4C218.575 54.9924 218.355 55.497 217.938 55.9139C217.543 56.3089 217.049 56.5173 216.456 56.5392H208.748C207.123 56.5612 205.652 55.9249 204.335 54.6304C203.017 53.3358 202.216 51.7999 201.93 50.0227C201.535 48.048 201.337 46.94 201.337 46.6986C201.337 46.0843 201.546 45.5687 201.963 45.1518C202.402 44.713 202.929 44.4935 203.544 44.4935H212.24C212.657 44.4716 212.997 44.3838 213.261 44.2303C213.546 44.0547 213.755 43.8682 213.887 43.6708C214.018 43.4513 214.084 43.2319 214.084 43.0125C214.084 42.7931 214.018 42.5847 213.887 42.3872C213.755 42.1678 213.546 41.9813 213.261 41.8277C212.997 41.6522 212.657 41.5534 212.24 41.5315H203.314H200.679C200.108 41.5534 199.822 41.8387 199.822 42.3872V54.8607Z" fill="white"/>
<path d="M224.731 36.5947C225.346 36.5947 225.873 36.8032 226.312 37.2201C226.751 37.615 226.982 38.1196 227.004 38.734V39.3593C226.982 40.2589 227.037 41.0927 227.169 41.8606C227.322 42.6066 227.674 43.2758 228.223 43.8682C228.772 44.4606 229.463 44.7788 230.298 44.8227H239.553V38.7998C239.553 38.1855 239.773 37.6808 240.212 37.2859C240.673 36.869 241.211 36.6606 241.826 36.6606C243.144 36.7703 243.868 37.4833 244 38.7998V46.4353C244 48.1906 243.758 49.8472 243.275 51.405C242.836 52.7873 242.112 53.9611 241.101 54.9266C240.113 55.87 238.851 56.3856 237.314 56.4734H225.456C224.863 56.4515 224.358 56.243 223.941 55.8481C223.545 55.4312 223.337 54.9266 223.315 54.3341C223.315 53.7198 223.513 53.1932 223.908 52.7544C224.325 52.3156 224.841 52.0852 225.456 52.0632H236.194C237.028 52.0194 237.72 51.7012 238.269 51.1088C238.774 50.5603 239.114 49.9349 239.29 49.2328H229.178C227.641 49.1451 226.367 48.6295 225.357 47.686C224.369 46.7206 223.655 45.5467 223.216 44.1644C222.799 42.7821 222.579 41.3121 222.557 39.7543V38.734C222.579 38.1416 222.799 37.6479 223.216 37.253C223.633 36.8361 224.138 36.6167 224.731 36.5947Z" fill="white"/>
<path d="M69.4466 24.5293C69.3149 25.8458 68.5903 26.5589 67.2727 26.6686C66.6579 26.6686 66.1199 26.4711 65.6588 26.0761C65.2196 25.6593 65 25.1436 65 24.5293V8.92914C65.022 8.31479 65.2525 7.81014 65.6917 7.4152C66.1309 6.99832 66.6579 6.78988 67.2727 6.78988H68.8867H72.9381H81.0738C81.2055 6.78988 81.3373 6.80085 81.469 6.82279H81.6667C83.2038 6.86668 84.4664 7.21773 85.4545 7.87597C86.4427 8.5342 87.1563 9.29117 87.5955 10.1469C88.0347 10.9806 88.2543 11.8254 88.2543 12.6811C88.2543 13.5587 88.0347 14.4254 87.5955 15.2811C87.1783 16.1149 86.4646 16.8609 85.4545 17.5191C84.4664 18.1773 83.2038 18.5284 81.6667 18.5723H75.8696C76.0452 19.6693 76.4076 20.4812 76.9565 21.0077C77.4835 21.5343 78.1533 21.7976 78.9657 21.7976H86.0804C86.6952 21.8196 87.2003 22.0499 87.5955 22.4888C88.0127 22.9276 88.2213 23.4542 88.2213 24.0685C88.1994 24.6609 87.9798 25.1656 87.5626 25.5825C87.1673 25.9774 86.6733 26.1859 86.0804 26.2078H78.3729C76.7479 26.2297 75.2767 25.5934 73.9592 24.2989C72.6416 23.0044 71.8401 21.4685 71.5547 19.6913C71.1594 17.7166 70.9618 16.6085 70.9618 16.3672C70.9618 15.7528 71.1704 15.2372 71.5876 14.8203C72.0268 14.3815 72.5538 14.1621 73.1686 14.1621H81.8643C82.2815 14.1402 82.6219 14.0524 82.8854 13.8988C83.1708 13.7233 83.3794 13.5368 83.5112 13.3393C83.643 13.1199 83.7088 12.9005 83.7088 12.6811C83.7088 12.4617 83.643 12.2532 83.5112 12.0558C83.3794 11.8363 83.1708 11.6498 82.8854 11.4963C82.6219 11.3207 82.2815 11.222 81.8643 11.2001H72.9381H70.303C69.7321 11.222 69.4466 11.5072 69.4466 12.0558V24.5293Z" stroke="white"/>
<path d="M109.837 6.78988C110.957 6.81182 111.956 7.16288 112.834 7.84306C113.712 8.52323 114.415 9.33505 114.942 10.2785C115.491 11.222 115.897 12.2203 116.161 13.2735C116.424 14.3267 116.556 15.4018 116.556 16.4988C116.556 17.947 116.325 19.3731 115.864 20.7774C115.425 22.1597 114.689 23.3884 113.657 24.4635C112.647 25.5386 111.374 26.12 109.837 26.2078H98.3412C96.8041 26.142 95.5195 25.5715 94.4875 24.4964C93.4554 23.4213 92.7198 22.1816 92.2806 20.7774C91.8634 19.3731 91.6548 17.947 91.6548 16.4988C91.6548 15.0507 91.8744 13.6355 92.3136 12.2532C92.7527 10.849 93.4774 9.60932 94.4875 8.5342C95.5195 7.43714 96.8041 6.8557 98.3412 6.78988H98.9671H109.211H109.837ZM108.717 21.7976C109.551 21.7537 110.243 21.4466 110.792 20.8761C111.363 20.2837 111.769 19.6035 112.011 18.8356C112.252 18.0676 112.373 17.2887 112.373 16.4988C112.373 15.709 112.241 14.941 111.978 14.195C111.736 13.4271 111.341 12.7469 110.792 12.1545C110.243 11.5621 109.551 11.2439 108.717 11.2001H99.3623C98.5279 11.2439 97.8362 11.5621 97.2872 12.1545C96.7383 12.7469 96.332 13.4271 96.0685 14.195C95.827 14.941 95.7062 15.709 95.7062 16.4988C95.7062 17.2887 95.827 18.0676 96.0685 18.8356C96.3101 19.6035 96.7053 20.2837 97.2543 20.8761C97.8252 21.4466 98.5279 21.7537 99.3623 21.7976H108.717Z" stroke="white"/>
<path d="M122.69 6.26329C123.305 6.26329 123.832 6.47173 124.271 6.88862C124.711 7.28356 124.941 7.7882 124.963 8.40256V9.02788C124.941 9.92746 124.996 10.7612 125.128 11.5292C125.282 12.2752 125.633 12.9444 126.182 13.5368C126.731 14.1292 127.422 14.4473 128.257 14.4912H137.513V8.46838C137.513 7.85403 137.732 7.34938 138.171 6.95444C138.632 6.53756 139.17 6.32912 139.785 6.32912C141.103 6.43882 141.827 7.15191 141.959 8.46838V16.1039C141.959 17.8592 141.718 19.5157 141.235 21.0736C140.795 22.4559 140.071 23.6297 139.061 24.5951C138.072 25.5386 136.81 26.0542 135.273 26.142H123.415C122.822 26.12 122.317 25.9116 121.9 25.5166C121.505 25.0998 121.296 24.5951 121.274 24.0027C121.274 23.3884 121.472 22.8618 121.867 22.4229C122.284 21.9841 122.8 21.7537 123.415 21.7318H134.153C134.987 21.6879 135.679 21.3698 136.228 20.7774C136.733 20.2288 137.073 19.6035 137.249 18.9014H127.137C125.6 18.8136 124.326 18.298 123.316 17.3545C122.328 16.3891 121.614 15.2153 121.175 13.833C120.758 12.4507 120.538 10.9806 120.516 9.42282V8.40256C120.538 7.81014 120.758 7.31647 121.175 6.92153C121.592 6.50465 122.097 6.28523 122.69 6.26329Z" stroke="white"/>
<path d="M154.022 21.1065C154.022 20.4921 154.231 19.9765 154.648 19.5596C155.087 19.1208 155.614 18.9014 156.229 18.9014H161.269L160.412 16.4659C160.061 15.5663 159.71 14.7216 159.358 13.9317C159.029 13.1199 158.645 12.3849 158.206 11.7266C157.81 11.0684 157.36 10.7173 156.855 10.6735C156.328 10.7173 155.856 11.0684 155.439 11.7266C155.022 12.3849 154.637 13.1199 154.286 13.9317C153.957 14.7216 153.616 15.5663 153.265 16.4659L150.136 25.023C149.916 25.4837 149.631 25.8677 149.279 26.1749C148.95 26.4601 148.445 26.6027 147.764 26.6027C147.127 26.6027 146.6 26.3833 146.183 25.9445C145.788 25.5057 145.612 24.9791 145.656 24.3647C145.678 24.0795 145.744 23.8162 145.854 23.5749L149.477 14.2279C150.487 11.7705 151.497 9.78485 152.507 8.27091C153.495 6.77891 154.945 6.02194 156.855 6C158.744 6.02194 160.182 6.77891 161.17 8.27091C162.18 9.74097 163.19 11.7266 164.2 14.2279L167.823 23.5749C167.933 23.8162 167.999 24.0795 168.021 24.3647C168.065 24.9791 167.878 25.5057 167.461 25.9445C167.066 26.3833 166.55 26.6027 165.913 26.6027C165.188 26.6027 164.65 26.4601 164.299 26.1749C163.97 25.8677 163.695 25.4837 163.476 25.023L162.85 23.3116H156.229C155.614 23.3116 155.098 23.0922 154.681 22.6533C154.242 22.2364 154.022 21.7208 154.022 21.1065Z" stroke="white"/>
<path d="M173.859 6.26329C174.474 6.26329 175.001 6.47173 175.44 6.88862C175.879 7.28356 176.11 7.7882 176.132 8.40256V16.3343C176.11 17.2339 176.165 18.0676 176.296 18.8356C176.45 19.5816 176.801 20.2508 177.35 20.8432C177.899 21.4356 178.591 21.7537 179.426 21.7976H189.966C190.581 21.8196 191.086 22.0499 191.481 22.4888C191.898 22.9276 192.107 23.4542 192.107 24.0685C192.085 24.6609 191.865 25.1656 191.448 25.5825C191.053 25.9774 190.559 26.1859 189.966 26.2078H178.306C176.769 26.12 175.495 25.6044 174.485 24.6609C173.497 23.6955 172.783 22.5217 172.344 21.1394C171.927 19.7571 171.707 18.287 171.685 16.7292V8.40256C171.707 7.81014 171.927 7.31647 172.344 6.92153C172.761 6.50465 173.266 6.28523 173.859 6.26329Z" stroke="white"/>
<path d="M67.2069 36.5947C67.8217 36.5947 68.3487 36.8032 68.7879 37.2201C69.2271 37.615 69.4576 38.1196 69.4796 38.734V46.6657C69.4576 47.5653 69.5125 48.3991 69.6443 49.167C69.798 49.913 70.1493 50.5822 70.6983 51.1746C71.2473 51.767 71.939 52.0852 72.7734 52.1291H83.3136C83.9284 52.151 84.4335 52.3814 84.8287 52.8202C85.2459 53.259 85.4545 53.7856 85.4545 54.4C85.4326 54.9924 85.213 55.497 84.7958 55.9139C84.4005 56.3089 83.9065 56.5173 83.3136 56.5392H71.6535C70.1164 56.4515 68.8428 55.9359 67.8327 54.9924C66.8445 54.027 66.1309 52.8531 65.6917 51.4708C65.2745 50.0885 65.0549 48.6185 65.0329 47.0607V38.734C65.0549 38.1416 65.2745 37.6479 65.6917 37.253C66.1089 36.8361 66.614 36.6167 67.2069 36.5947Z" stroke="white"/>
<path d="M106.609 37.1213C107.729 37.1433 108.728 37.4943 109.606 38.1745C110.484 38.8547 111.187 39.6665 111.714 40.61C112.263 41.5534 112.669 42.5518 112.933 43.6049C113.196 44.6581 113.328 45.7332 113.328 46.8303C113.328 48.2784 113.097 49.7046 112.636 51.1088C112.197 52.4911 111.462 53.7198 110.43 54.7949C109.419 55.87 108.146 56.4515 106.609 56.5392H95.1133C93.5762 56.4734 92.2916 55.9029 91.2596 54.8278C90.2275 53.7527 89.4919 52.513 89.0527 51.1088C88.6355 49.7046 88.4269 48.2784 88.4269 46.8303C88.4269 45.3822 88.6465 43.967 89.0856 42.5847C89.5248 41.1804 90.2494 39.9408 91.2596 38.8656C92.2916 37.7686 93.5762 37.1871 95.1133 37.1213H95.7391H105.983H106.609ZM105.489 52.1291C106.323 52.0852 107.015 51.778 107.564 51.2075C108.135 50.6151 108.541 49.9349 108.783 49.167C109.024 48.3991 109.145 47.6202 109.145 46.8303C109.145 46.0404 109.013 45.2725 108.75 44.5265C108.508 43.7585 108.113 43.0783 107.564 42.4859C107.015 41.8935 106.323 41.5754 105.489 41.5315H96.1344C95.3 41.5754 94.6083 41.8935 94.0593 42.4859C93.5103 43.0783 93.1041 43.7585 92.8406 44.5265C92.599 45.2725 92.4783 46.0404 92.4783 46.8303C92.4783 47.6202 92.599 48.3991 92.8406 49.167C93.0821 49.9349 93.4774 50.6151 94.0263 51.2075C94.5973 51.778 95.3 52.0852 96.1344 52.1291H105.489Z" stroke="white"/>
<path d="M116.63 39.3264C116.63 38.7121 116.838 38.1964 117.256 37.7796C117.695 37.3407 118.222 37.1213 118.837 37.1213H138.007C138.621 37.1213 139.148 37.3298 139.588 37.7466C140.005 38.1855 140.213 38.7121 140.213 39.3264C140.213 39.9408 139.994 40.4673 139.555 40.9062C139.137 41.323 138.621 41.5315 138.007 41.5315H130.661V54.8607C130.53 56.1772 129.805 56.8903 128.487 57C127.873 57 127.335 56.8025 126.874 56.4076C126.434 55.9907 126.215 55.4751 126.215 54.8607V41.5315H118.837C118.222 41.5315 117.706 41.3121 117.289 40.8733C116.849 40.4564 116.63 39.9408 116.63 39.3264Z" stroke="white"/>
<path d="M143.383 39.3264C143.383 38.7121 143.592 38.1964 144.009 37.7796C144.448 37.3407 144.975 37.1213 145.59 37.1213H164.76C165.375 37.1213 165.902 37.3298 166.341 37.7466C166.758 38.1855 166.967 38.7121 166.967 39.3264C166.967 39.9408 166.747 40.4673 166.308 40.9062C165.891 41.323 165.375 41.5315 164.76 41.5315H157.415V54.8607C157.283 56.1772 156.559 56.8903 155.241 57C154.626 57 154.088 56.8025 153.627 56.4076C153.188 55.9907 152.968 55.4751 152.968 54.8607V41.5315H145.59C144.975 41.5315 144.459 41.3121 144.042 40.8733C143.603 40.4564 143.383 39.9408 143.383 39.3264Z" stroke="white"/>
<path d="M176.889 37.1213H178.404H189.603C190.218 37.1433 190.723 37.3736 191.119 37.8125C191.536 38.2513 191.744 38.7779 191.744 39.3922C191.635 40.7087 190.921 41.4218 189.603 41.5315H178.009C177.175 41.5754 176.483 41.8935 175.934 42.4859C175.385 43.0783 174.979 43.7585 174.715 44.5265C174.474 45.2725 174.353 46.0404 174.353 46.8303C174.353 47.6202 174.474 48.3991 174.715 49.167C174.979 49.913 175.385 50.5822 175.934 51.1746C176.483 51.767 177.175 52.0852 178.009 52.1291H189.603C190.218 52.151 190.723 52.3814 191.119 52.8202C191.536 53.259 191.744 53.7856 191.744 54.4C191.722 54.9924 191.503 55.497 191.086 55.9139C190.69 56.3089 190.196 56.5173 189.603 56.5392H177.515H176.889C175.352 56.4515 174.079 55.87 173.069 54.7949C172.08 53.6979 171.367 52.4582 170.928 51.0759C170.51 49.6936 170.302 48.2784 170.302 46.8303C170.302 45.3822 170.521 43.967 170.96 42.5847C171.4 41.2024 172.113 39.9737 173.101 38.8986C174.09 37.8015 175.352 37.2091 176.889 37.1213ZM191.679 46.6986C191.679 47.313 191.459 47.8286 191.02 48.2455C190.603 48.6843 190.087 48.9037 189.472 48.9037H179.524C178.91 48.9037 178.383 48.6953 177.943 48.2784C177.526 47.8396 177.318 47.313 177.318 46.6986C177.318 46.0843 177.526 45.5577 177.943 45.1189C178.383 44.702 178.91 44.4935 179.524 44.4935H189.472C190.087 44.4935 190.603 44.713 191.02 45.1518C191.459 45.5687 191.679 46.0843 191.679 46.6986Z" stroke="white"/>
<path d="M199.822 54.8607C199.69 56.1772 198.966 56.8903 197.648 57C197.033 57 196.495 56.8025 196.034 56.4076C195.595 55.9907 195.375 55.4751 195.375 54.8607V39.2606C195.397 38.6462 195.628 38.1416 196.067 37.7466C196.506 37.3298 197.033 37.1213 197.648 37.1213H199.262H203.314H211.449C211.581 37.1213 211.713 37.1323 211.845 37.1542H212.042C213.579 37.1981 214.842 37.5492 215.83 38.2074C216.818 38.8656 217.532 39.6226 217.971 40.4783C218.41 41.3121 218.63 42.1568 218.63 43.0125C218.63 43.8902 218.41 44.7568 217.971 45.6125C217.554 46.4463 216.84 47.1923 215.83 47.8505C214.842 48.5088 213.579 48.8598 212.042 48.9037H206.245C206.421 50.0008 206.783 50.8126 207.332 51.3392C207.859 51.8658 208.529 52.1291 209.341 52.1291H216.456C217.071 52.151 217.576 52.3814 217.971 52.8202C218.388 53.259 218.597 53.7856 218.597 54.4C218.575 54.9924 218.355 55.497 217.938 55.9139C217.543 56.3089 217.049 56.5173 216.456 56.5392H208.748C207.123 56.5612 205.652 55.9249 204.335 54.6304C203.017 53.3358 202.216 51.7999 201.93 50.0227C201.535 48.048 201.337 46.94 201.337 46.6986C201.337 46.0843 201.546 45.5687 201.963 45.1518C202.402 44.713 202.929 44.4935 203.544 44.4935H212.24C212.657 44.4716 212.997 44.3838 213.261 44.2303C213.546 44.0547 213.755 43.8682 213.887 43.6708C214.018 43.4513 214.084 43.2319 214.084 43.0125C214.084 42.7931 214.018 42.5847 213.887 42.3872C213.755 42.1678 213.546 41.9813 213.261 41.8277C212.997 41.6522 212.657 41.5534 212.24 41.5315H203.314H200.679C200.108 41.5534 199.822 41.8387 199.822 42.3872V54.8607Z" stroke="white"/>
<path d="M224.731 36.5947C225.346 36.5947 225.873 36.8032 226.312 37.2201C226.751 37.615 226.982 38.1196 227.004 38.734V39.3593C226.982 40.2589 227.037 41.0927 227.169 41.8606C227.322 42.6066 227.674 43.2758 228.223 43.8682C228.772 44.4606 229.463 44.7788 230.298 44.8227H239.553V38.7998C239.553 38.1855 239.773 37.6808 240.212 37.2859C240.673 36.869 241.211 36.6606 241.826 36.6606C243.144 36.7703 243.868 37.4833 244 38.7998V46.4353C244 48.1906 243.758 49.8472 243.275 51.405C242.836 52.7873 242.112 53.9611 241.101 54.9266C240.113 55.87 238.851 56.3856 237.314 56.4734H225.456C224.863 56.4515 224.358 56.243 223.941 55.8481C223.545 55.4312 223.337 54.9266 223.315 54.3341C223.315 53.7198 223.513 53.1932 223.908 52.7544C224.325 52.3156 224.841 52.0852 225.456 52.0632H236.194C237.028 52.0194 237.72 51.7012 238.269 51.1088C238.774 50.5603 239.114 49.9349 239.29 49.2328H229.178C227.641 49.1451 226.367 48.6295 225.357 47.686C224.369 46.7206 223.655 45.5467 223.216 44.1644C222.799 42.7821 222.579 41.3121 222.557 39.7543V38.734C222.579 38.1416 222.799 37.6479 223.216 37.253C223.633 36.8361 224.138 36.6167 224.731 36.5947Z" stroke="white"/>
</svg>
