<svg width="50" height="50" viewBox="0 0 50 50" fill="none" xmlns="http://www.w3.org/2000/svg">
<path d="M25 0.619141C11.5417 0.619141 0.619019 11.5418 0.619019 25.0001C0.619019 38.4584 11.5417 49.381 25 49.381C38.4583 49.381 49.3809 38.4584 49.3809 25.0001C49.3809 11.5418 38.4583 0.619141 25 0.619141ZM36.3127 17.1982C35.947 21.0504 34.3623 30.4127 33.5577 34.7281C33.2164 36.5567 32.5337 37.1662 31.8998 37.2393C30.4857 37.3612 29.4129 36.3129 28.0476 35.4108C25.9021 33.9967 24.683 33.119 22.6106 31.7536C20.1969 30.1689 21.7573 29.2911 23.147 27.877C23.5127 27.5113 29.7543 21.8306 29.8762 21.3186C29.8931 21.241 29.8908 21.1605 29.8696 21.084C29.8484 21.0076 29.8088 20.9374 29.7543 20.8797C29.608 20.7578 29.4129 20.8066 29.2423 20.831C29.0228 20.8797 25.6095 23.1471 18.9535 27.6332C17.9783 28.2915 17.1005 28.6329 16.3204 28.6085C15.4426 28.5841 13.7847 28.1209 12.5413 27.7064C11.0053 27.2188 9.81064 26.9506 9.90816 26.0972C9.95692 25.6584 10.5664 25.2195 11.7124 24.7563C18.8316 21.6599 23.5615 19.6119 25.9264 18.6367C32.7044 15.8085 34.0941 15.3209 35.0205 15.3209C35.2156 15.3209 35.6788 15.3696 35.9714 15.6134C36.2152 15.8085 36.2884 16.0767 36.3127 16.2717C36.2884 16.418 36.3371 16.8569 36.3127 17.1982Z" fill="white"/>
</svg>
