<svg width="52" height="43" viewBox="0 0 52 43" fill="none" xmlns="http://www.w3.org/2000/svg">
<path d="M16.3699 42.8572C35.9215 42.8572 46.6169 26.7311 46.6169 12.7711C46.6169 12.3199 46.6169 11.8622 46.5975 11.4109C48.6798 9.91044 50.4769 8.05276 51.9047 5.92491C49.9597 6.7786 47.8984 7.34124 45.788 7.59457C48.011 6.27186 49.676 4.19069 50.4735 1.73788C48.3849 2.96957 46.0989 3.83421 43.7156 4.29394C42.1133 2.59535 39.9931 1.47008 37.6833 1.09245C35.3735 0.714807 33.0031 1.10587 30.9392 2.20505C28.8753 3.30424 27.2331 5.05021 26.267 7.17251C25.3008 9.29481 25.0647 11.675 25.5952 13.9444C21.3687 13.7335 17.2339 12.6405 13.459 10.7364C9.68409 8.83236 6.35343 6.15971 3.68302 2.89181C2.32736 5.22251 1.91364 7.97943 2.52588 10.6027C3.13811 13.226 4.7304 15.5191 6.97941 17.0162C5.29411 16.9592 3.64585 16.5087 2.1676 15.7011V15.8461C2.1705 18.2877 3.02021 20.6534 4.57309 22.5433C6.12597 24.4333 8.28678 25.7315 10.6903 26.2186C9.77797 26.4688 8.83558 26.5935 7.88931 26.5893C7.22221 26.5913 6.55645 26.5298 5.90112 26.4056C6.58043 28.5073 7.90315 30.3449 9.68401 31.661C11.4649 32.9771 13.6147 33.7058 15.8324 33.745C12.065 36.6904 7.41137 38.2879 2.62093 38.2801C1.77682 38.2837 0.933309 38.2352 0.0952148 38.1351C4.95726 41.2206 10.6038 42.8589 16.3699 42.8572Z" fill="white"/>
</svg>
